 <svg viewBox="0 0 1024 1024"><path d="M932.6 878.3H889V311.1c0.1-6.3-3.5-12.1-9.1-15.1L629.7 165c-11.8-6.2-26.1 2.2-26.1 15.1v698.3H573V80.9c0.1-11.9-12.1-20.1-23.8-16L167.5 201.8c-6.9 2.4-11.5 8.9-11.5 16v660.5H92c-9.7 0-17.5 9.2-17.5 20.4v40.7c0 11.2 7.8 20.4 17.5 20.4h840.6c9.7 0 17.5-9.1 17.5-20.4v-40.7c0-11.2-7.8-20.4-17.5-20.4zM693.1 318.2c0-14.2 11.8-25.7 26.5-25.7H766c14.6 0 26.5 11.4 26.5 25.7v17.1c0 14.2-11.8 25.7-26.5 25.7h-46.4c-14.6 0-26.5-11.4-26.5-25.7v-17.1z m0 103.1c0-14.2 11.8-25.7 26.5-25.7H766c14.6 0 26.5 11.4 26.5 25.7v17.1c0 14.2-11.8 25.7-26.5 25.7h-46.4c-14.6 0-26.5-11.4-26.5-25.7v-17.1z m0 103.3c0-14.2 11.8-25.7 26.5-25.7H766c14.6 0 26.5 11.4 26.5 25.7v17.1c0 14.2-11.8 25.7-26.5 25.7h-46.4c-14.6 0-26.5-11.4-26.5-25.7v-17.1z m0 105.3c0-14.2 11.8-25.7 26.5-25.7H766c14.6 0 26.5 11.4 26.5 25.7V647c0 14.2-11.8 25.7-26.5 25.7h-46.4c-14.6 0-26.5-11.4-26.5-25.7v-17.1z m0 100.1c0-14.2 11.8-25.7 26.5-25.7H766c14.6 0 26.5 11.4 26.5 25.7v17.1c0 14.2-11.8 25.7-26.5 25.7h-46.4c-14.6 0-26.5-11.4-26.5-25.7V730zM394.4 217.5c0-14.2 11.8-25.7 26.5-25.7h46.4c14.7 0 26.5 11.4 26.5 25.7v17.1c0 14.2-11.8 25.7-26.5 25.7h-46.4c-14.6 0-26.5-11.4-26.5-25.7v-17.1z m0 100.7c0-14.2 11.8-25.7 26.5-25.7h46.4c14.7 0 26.5 11.4 26.5 25.7v17.1c0 14.2-11.8 25.7-26.5 25.7h-46.4c-14.6 0-26.5-11.4-26.5-25.7v-17.1z m0 103.1c0-14.2 11.8-25.7 26.5-25.7h46.4c14.7 0 26.5 11.4 26.5 25.7v17.1c0 14.2-11.8 25.7-26.5 25.7h-46.4c-14.6 0-26.5-11.4-26.5-25.7v-17.1z m0 103.3c0-14.2 11.8-25.7 26.5-25.7h46.4c14.7 0 26.5 11.4 26.5 25.7v17.1c0 14.2-11.8 25.7-26.5 25.7h-46.4c-14.6 0-26.5-11.4-26.5-25.7v-17.1z m0 105.3c0-14.2 11.8-25.7 26.5-25.7h46.4c14.7 0 26.5 11.4 26.5 25.7V647c0 14.2-11.8 25.7-26.5 25.7h-46.4c-14.6 0-26.5-11.4-26.5-25.7v-17.1z m0 100.1c0-14.2 11.8-25.7 26.5-25.7h46.4c14.7 0 26.5 11.4 26.5 25.7v17.1c0 14.2-11.8 25.7-26.5 25.7h-46.4c-14.6 0-26.5-11.4-26.5-25.7V730zM237.8 318.2c0-14.2 11.8-25.7 26.5-25.7h46.4c14.6 0 26.5 11.4 26.5 25.7v17.1c0 14.2-11.8 25.7-26.5 25.7h-46.4c-14.6 0-26.5-11.4-26.5-25.7v-17.1z m0 103.1c0-14.2 11.8-25.7 26.5-25.7h46.4c14.6 0 26.5 11.4 26.5 25.7v17.1c0 14.2-11.8 25.7-26.5 25.7h-46.4c-14.6 0-26.5-11.4-26.5-25.7v-17.1z m0 103.3c0-14.2 11.8-25.7 26.5-25.7h46.4c14.6 0 26.5 11.4 26.5 25.7v17.1c0 14.2-11.8 25.7-26.5 25.7h-46.4c-14.6 0-26.5-11.4-26.5-25.7v-17.1z m0 105.3c0-14.2 11.8-25.7 26.5-25.7h46.4c14.6 0 26.5 11.4 26.5 25.7V647c0 14.2-11.8 25.7-26.5 25.7h-46.4c-14.6 0-26.5-11.4-26.5-25.7v-17.1z m0 100.1c0-14.2 11.8-25.7 26.5-25.7h46.4c14.6 0 26.5 11.4 26.5 25.7v17.1c0 14.2-11.8 25.7-26.5 25.7h-46.4c-14.6 0-26.5-11.4-26.5-25.7V730z" fill="#f79244" /></svg>