<svg viewBox="0 0 1024 1024"><path d="M830.122667 785.976889L684.600889 640.455111c42.780444-51.2 66.104889-115.029333 66.104889-182.613333 0-76.117333-29.696-147.683556-83.512889-201.614222s-125.383111-83.512889-201.614222-83.512889-147.683556 29.696-201.614223 83.512889-83.512889 125.383111-83.512888 201.614222 29.696 147.683556 83.512888 201.614222S389.575111 742.968889 465.692444 742.968889c57.799111 0 112.981333-17.066667 159.857778-48.924445l148.252445 148.252445c7.736889 7.736889 17.976889 11.719111 28.103111 11.719111s20.366222-3.868444 28.103111-11.719111c15.701333-15.587556 15.701333-40.846222 0.113778-56.32z m-224.938667-177.493333c-1.706667 1.251556-3.299556 2.616889-4.778667 4.096l-1.251555 1.251555c-35.953778 30.833778-82.602667 49.379556-133.461334 49.379556-113.322667 0-205.482667-92.16-205.482666-205.482667s92.16-205.482667 205.482666-205.482667 205.482667 92.16 205.482667 205.482667c0 59.619556-25.486222 113.208889-65.991111 150.755556z" /></svg>