<svg viewBox="0 0 1024 1024"><path d="M942.4 289.088c0 0-127.36 128.384-140.352 141.504-12.992 13.056-56.96 11.712-56.96 11.712S628.8 429.12 611.968 412.416C595.328 395.648 583.808 273.92 583.808 273.92S580.544 240.064 597.312 223.232c16.704-16.768 141.056-141.184 141.056-141.184S754.304 64.128 731.2 64C656.64 63.744 505.152 65.472 431.808 139.008L416.576 154.048c-84.736 85.376-92.224 213.184-27.52 307.072L104.64 712.96c-34.176 34.176-71.104 135.168 0 206.4 71.104 71.232 171.776 34.176 205.824-0.064 0 0 203.264-228.928 252.608-283.2 93.568 67.136 222.336 60.48 308.096-25.6l15.104-15.104C957.376 524.032 959.68 373.76 960 297.728 960.192 273.472 942.4 289.088 942.4 289.088zM229.312 878.976c-46.656 0-84.352-37.632-84.352-84.288 0-46.528 37.76-84.288 84.352-84.288 46.592 0 84.224 37.824 84.224 84.288C313.536 841.344 275.904 878.976 229.312 878.976z" fill="#3db8ce" /></svg>